# xmcd CD database file
#
# Track frame offsets:
#	150
#	17955
#	31772
#	50130
#	67890
#	86510
#	106100
#	123782
#	141525
#	159260
#	177080
#	190705
#	208927
#	226612
#	245192
#	264767
#	282497
#
# Disc length: 4000 seconds
#
# Revision: 1
# Processed by: cddbd v1.5.1PL2 Copyright (c) Steve Scherf et al.
# Submitted via: CDex 1.51
#
DISCID=e50f9e11
DTITLE=lugdirythme 2 - lugdirythme 2
DYEAR=2006
DGENRE=Salsa
TTITLE0=batucada 01
TTITLE1=pablo chachacha 02
TTITLE2=ado maracatu 03
TTITLE3=mangrove et vanille 04
TTITLE4=nomad's moody 05
TTITLE5=les mots bossa 06
TTITLE6=bascule dance 07
TTITLE7=tout de go tango 08
TTITLE8=fin
TTITLE9=play back batucada 10
TTITLE10=play back pablo 11
TTITLE11=play back ado 12
TTITLE12=play back mangrove 13
TTITLE13=play back nomad's 14
TTITLE14=play back les mots 15
TTITLE15=play back bascule 16
TTITLE16=play back tout de go 17
EXTD=YEAR: 2006
EXTT0=
EXTT1=
EXTT2=
EXTT3=
EXTT4=
EXTT5=
EXTT6=
EXTT7=
EXTT8=
EXTT9=
EXTT10=
EXTT11=
EXTT12=
EXTT13=
EXTT14=
EXTT15=
EXTT16=
PLAYORDER=
